<mxfile host="app.diagrams.net" modified="2024-01-01T22:26:44.656Z" agent="Mozilla/5.0 (Windows NT 10.0; Win64; x64) AppleWebKit/537.36 (KHTML, like Gecko) Chrome/120.0.0.0 Safari/537.36" etag="lwRgQakFyP3mwYj0pcS0" version="22.1.16" type="device">
  <diagram name="PÃ¡gina-1" id="AHgnEtEkGQz4qsDMoYwc">
    <mxGraphModel dx="1750" dy="978" grid="1" gridSize="10" guides="1" tooltips="1" connect="1" arrows="1" fold="1" page="1" pageScale="1" pageWidth="827" pageHeight="1169" math="0" shadow="0">
      <root>
        <mxCell id="0" />
        <mxCell id="1" parent="0" />
        <mxCell id="Fvpvccran3TEypnIrrUl-1" value="ApproveOrRejectUtenteComponent" style="shape=umlLifeline;perimeter=lifelinePerimeter;whiteSpace=wrap;container=1;dropTarget=0;collapsible=0;recursiveResize=0;outlineConnect=0;portConstraint=eastwest;newEdgeStyle={&quot;edgeStyle&quot;:&quot;elbowEdgeStyle&quot;,&quot;elbow&quot;:&quot;vertical&quot;,&quot;curved&quot;:0,&quot;rounded&quot;:0};size=65;" vertex="1" parent="1">
          <mxGeometry x="300" y="20" width="273" height="620" as="geometry" />
        </mxCell>
        <mxCell id="Fvpvccran3TEypnIrrUl-22" value="" style="html=1;points=[[0,0,0,0,5],[0,1,0,0,-5],[1,0,0,0,5],[1,1,0,0,-5]];perimeter=orthogonalPerimeter;outlineConnect=0;targetShapes=umlLifeline;portConstraint=eastwest;newEdgeStyle={&quot;curved&quot;:0,&quot;rounded&quot;:0};" vertex="1" parent="Fvpvccran3TEypnIrrUl-1">
          <mxGeometry x="131.5" y="90" width="10" height="340" as="geometry" />
        </mxCell>
        <mxCell id="Fvpvccran3TEypnIrrUl-5" value="listarUtilizadoresPendentes()" style="verticalAlign=bottom;endArrow=block;edgeStyle=elbowEdgeStyle;elbow=vertical;curved=0;rounded=0;" edge="1" parent="1" target="Fvpvccran3TEypnIrrUl-36">
          <mxGeometry relative="1" as="geometry">
            <Array as="points">
              <mxPoint x="586.5" y="150" />
            </Array>
            <mxPoint x="441.32352941176487" y="150" as="sourcePoint" />
            <mxPoint x="700" y="150" as="targetPoint" />
          </mxGeometry>
        </mxCell>
        <mxCell id="Fvpvccran3TEypnIrrUl-6" value="return list" style="verticalAlign=bottom;endArrow=block;edgeStyle=elbowEdgeStyle;elbow=vertical;curved=0;rounded=0;dashed=1;dashPattern=2 3;" edge="1" parent="1" source="Fvpvccran3TEypnIrrUl-36" target="Fvpvccran3TEypnIrrUl-1">
          <mxGeometry relative="1" as="geometry">
            <Array as="points">
              <mxPoint x="581" y="231" />
            </Array>
            <mxPoint x="705.5" y="231" as="sourcePoint" />
          </mxGeometry>
        </mxCell>
        <mxCell id="Fvpvccran3TEypnIrrUl-7" value="approveOrReject()" style="verticalAlign=bottom;endArrow=block;edgeStyle=elbowEdgeStyle;elbow=vertical;curved=0;rounded=0;" edge="1" parent="1" source="Fvpvccran3TEypnIrrUl-1" target="Fvpvccran3TEypnIrrUl-36">
          <mxGeometry relative="1" as="geometry">
            <Array as="points">
              <mxPoint x="581" y="285" />
            </Array>
            <mxPoint x="705.5" y="285" as="targetPoint" />
          </mxGeometry>
        </mxCell>
        <mxCell id="Fvpvccran3TEypnIrrUl-13" value="ApproveOrRejectUtenteComponent" style="shape=umlLifeline;perimeter=lifelinePerimeter;whiteSpace=wrap;container=1;dropTarget=0;collapsible=0;recursiveResize=0;outlineConnect=0;portConstraint=eastwest;newEdgeStyle={&quot;edgeStyle&quot;:&quot;elbowEdgeStyle&quot;,&quot;elbow&quot;:&quot;vertical&quot;,&quot;curved&quot;:0,&quot;rounded&quot;:0};size=65;" vertex="1" parent="1">
          <mxGeometry x="300" y="570" width="273" height="70" as="geometry" />
        </mxCell>
        <mxCell id="Fvpvccran3TEypnIrrUl-18" value="" style="ellipse;html=1;fillColor=#000000;" vertex="1" parent="1">
          <mxGeometry x="740" y="60" width="10" height="10" as="geometry" />
        </mxCell>
        <mxCell id="Fvpvccran3TEypnIrrUl-31" value="Admin" style="shape=umlActor;verticalLabelPosition=bottom;verticalAlign=top;html=1;outlineConnect=0;" vertex="1" parent="1">
          <mxGeometry x="190" y="40" width="30" height="60" as="geometry" />
        </mxCell>
        <mxCell id="Fvpvccran3TEypnIrrUl-32" value="Admin" style="shape=umlActor;verticalLabelPosition=bottom;verticalAlign=top;html=1;outlineConnect=0;" vertex="1" parent="1">
          <mxGeometry x="180" y="455" width="30" height="60" as="geometry" />
        </mxCell>
        <mxCell id="Fvpvccran3TEypnIrrUl-33" value="" style="endArrow=none;dashed=1;html=1;strokeWidth=1;rounded=0;dashPattern=1 1;" edge="1" parent="1">
          <mxGeometry width="50" height="50" relative="1" as="geometry">
            <mxPoint x="200" y="450" as="sourcePoint" />
            <mxPoint x="200" y="120" as="targetPoint" />
          </mxGeometry>
        </mxCell>
        <mxCell id="Fvpvccran3TEypnIrrUl-34" value="escolhe o utilizador a rejeitar ou aceitar" style="verticalAlign=bottom;endArrow=block;edgeStyle=elbowEdgeStyle;elbow=vertical;curved=0;rounded=0;" edge="1" parent="1">
          <mxGeometry relative="1" as="geometry">
            <Array as="points">
              <mxPoint x="311.18" y="256" />
            </Array>
            <mxPoint x="200.00352941176487" y="256" as="sourcePoint" />
            <mxPoint x="436.0000000000002" y="256.0000000000001" as="targetPoint" />
          </mxGeometry>
        </mxCell>
        <mxCell id="Fvpvccran3TEypnIrrUl-35" value="resposta" style="verticalAlign=bottom;endArrow=block;edgeStyle=elbowEdgeStyle;elbow=vertical;curved=0;rounded=0;dashed=1;dashPattern=2 3;" edge="1" parent="1" target="Fvpvccran3TEypnIrrUl-1">
          <mxGeometry relative="1" as="geometry">
            <Array as="points" />
            <mxPoint x="821.5" y="370.42666666666673" as="sourcePoint" />
            <mxPoint x="590" y="370" as="targetPoint" />
          </mxGeometry>
        </mxCell>
        <mxCell id="Fvpvccran3TEypnIrrUl-36" value="Auth" style="shape=umlLifeline;perimeter=lifelinePerimeter;whiteSpace=wrap;container=1;dropTarget=0;collapsible=0;recursiveResize=0;outlineConnect=0;portConstraint=eastwest;newEdgeStyle={&quot;edgeStyle&quot;:&quot;elbowEdgeStyle&quot;,&quot;elbow&quot;:&quot;vertical&quot;,&quot;curved&quot;:0,&quot;rounded&quot;:0};size=65;" vertex="1" parent="1">
          <mxGeometry x="680" y="20" width="273" height="620" as="geometry" />
        </mxCell>
        <mxCell id="Fvpvccran3TEypnIrrUl-37" value="" style="html=1;points=[[0,0,0,0,5],[0,1,0,0,-5],[1,0,0,0,5],[1,1,0,0,-5]];perimeter=orthogonalPerimeter;outlineConnect=0;targetShapes=umlLifeline;portConstraint=eastwest;newEdgeStyle={&quot;curved&quot;:0,&quot;rounded&quot;:0};" vertex="1" parent="Fvpvccran3TEypnIrrUl-36">
          <mxGeometry x="131.5" y="90" width="10" height="280" as="geometry" />
        </mxCell>
        <mxCell id="Fvpvccran3TEypnIrrUl-38" value="Auth" style="shape=umlLifeline;perimeter=lifelinePerimeter;whiteSpace=wrap;container=1;dropTarget=0;collapsible=0;recursiveResize=0;outlineConnect=0;portConstraint=eastwest;newEdgeStyle={&quot;edgeStyle&quot;:&quot;elbowEdgeStyle&quot;,&quot;elbow&quot;:&quot;vertical&quot;,&quot;curved&quot;:0,&quot;rounded&quot;:0};size=65;" vertex="1" parent="1">
          <mxGeometry x="680" y="570" width="273" height="70" as="geometry" />
        </mxCell>
        <mxCell id="Fvpvccran3TEypnIrrUl-39" value="resposta" style="verticalAlign=bottom;endArrow=block;edgeStyle=elbowEdgeStyle;elbow=vertical;curved=0;rounded=0;dashed=1;dashPattern=2 3;" edge="1" parent="1" source="Fvpvccran3TEypnIrrUl-1">
          <mxGeometry relative="1" as="geometry">
            <Array as="points" />
            <mxPoint x="586.5" y="430.42666666666673" as="sourcePoint" />
            <mxPoint x="200" y="430" as="targetPoint" />
          </mxGeometry>
        </mxCell>
      </root>
    </mxGraphModel>
  </diagram>
</mxfile>
